<svg xmlns="http://www.w3.org/2000/svg" width="200" height="48" viewBox="0 0 200 48">
  <g fill="#FFF" fill-rule="evenodd">
    <path d="M61.9936438 32.2954521C60.1795068 28.9880548 57.0851507 27.6716712 53.4930411 27.6716712 48.2649863 27.6716712 44.1034521 31.3703014 44.1034521 37.6306849 44.1034521 43.9969315 48.0157808 47.5890411 53.6705753 47.5890411 57.2981918 47.5890411 60.3925479 45.5973699 62.0995068 42.5740274L58.1161644 40.5468493C57.2265205 42.6812055 55.8752877 43.3216438 54.1683288 43.3216438 51.216 43.3216438 49.8647671 40.867726 49.8647671 37.6313425 49.8647671 34.3943014 51.0029589 31.9403836 54.1683288 31.9403836 55.0218082 31.9403836 56.7294247 32.4026301 57.7249315 34.5369863L61.9936438 32.2954521zM72.1617534 31.939726C75.3271233 31.939726 76.6790137 34.3936438 76.6790137 37.4169863 76.6790137 40.8670685 75.3271233 43.3209863 72.1617534 43.3209863 68.9963836 43.3209863 67.6451507 40.8670685 67.6451507 37.6306849 67.6451507 34.3943014 68.9963836 31.939726 72.1617534 31.939726zM72.1617534 27.6716712C66.2577534 27.6716712 62.0968767 31.2637808 62.0968767 37.6306849 62.0968767 43.9969315 66.2577534 47.5890411 72.1617534 47.5890411 78.0657534 47.5890411 82.2272877 43.9969315 82.2272877 37.6306849 82.2272877 31.2644384 78.0657534 27.6716712 72.1617534 27.6716712zM83.3641644 47.0906301L88.9124384 47.0906301 88.9124384 35.3187945C88.9124384 33.6118356 89.6238904 32.1534247 91.8641096 32.1534247 93.9984658 32.1534247 94.5672329 33.398137 94.5672329 35.2477808L94.5672329 47.0912877 100.115507 47.0912877 100.115507 35.4608219C100.115507 33.5401644 101.075507 32.1534247 102.925151 32.1534247 105.023342 32.1534247 105.770301 33.3626301 105.770301 36.0302466L105.770301 47.0906301 111.318575 47.0906301 111.318575 32.6511781C111.318575 28.3121096 107.335233 27.6716712 105.485589 27.6716712 103.280219 27.6716712 101.217534 28.3476164 99.4040548 30.1966027 98.1586849 28.5251507 96.5589041 27.6716712 94.3890411 27.6716712 92.6820822 27.6716712 90.3346849 28.1694247 88.9117808 29.8415342L88.9117808 28.1700822 83.3635068 28.1700822 83.3635068 47.0906301 83.3641644 47.0906301zM113.093918 47.0906301L118.642192 47.0906301 118.642192 35.3187945C118.642192 33.6118356 119.353644 32.1534247 121.593863 32.1534247 123.728219 32.1534247 124.296986 33.398137 124.296986 35.2477808L124.296986 47.0912877 129.84526 47.0912877 129.84526 35.4608219C129.84526 33.5401644 130.80526 32.1534247 132.654247 32.1534247 134.752438 32.1534247 135.500055 33.3626301 135.500055 36.0302466L135.500055 47.0906301 141.048329 47.0906301 141.048329 32.6511781C141.048329 28.3121096 137.064329 27.6716712 135.215342 27.6716712 133.009973 27.6716712 130.947945 28.3476164 129.133808 30.1966027 127.889096 28.5251507 126.288658 27.6716712 124.118795 27.6716712 122.411836 27.6716712 120.064438 28.1694247 118.641534 29.8415342L118.641534 28.1700822 113.09326 28.1700822 113.09326 47.0906301 113.093918 47.0906301zM152.24811 31.939726C155.412822 31.939726 156.764712 34.3936438 156.764712 37.4169863 156.764712 40.8670685 155.412822 43.3209863 152.24811 43.3209863 149.08274 43.3209863 147.730849 40.8670685 147.730849 37.6306849 147.730849 34.3943014 149.08274 31.939726 152.24811 31.939726zM152.24811 27.6716712C146.34411 27.6716712 142.182575 31.2637808 142.182575 37.6306849 142.182575 43.9969315 146.343452 47.5890411 152.24811 47.5890411 158.15211 47.5890411 162.313644 43.9969315 162.313644 37.6306849 162.313644 31.2644384 158.15211 27.6716712 152.24811 27.6716712zM163.806247 47.0906301L169.354521 47.0906301 169.354521 35.3187945C169.354521 33.6118356 170.065973 32.1534247 172.306849 32.1534247 174.440548 32.1534247 175.009315 33.398137 175.009315 35.2477808L175.009315 47.0912877 180.557589 47.0912877 180.557589 33.1134247C180.557589 30.268274 179.312219 27.6716712 174.831123 27.6716712 173.124164 27.6716712 170.776767 28.1694247 169.353863 29.8415342L169.353863 28.1700822 163.805589 28.1700822 163.805589 47.0906301 163.806247 47.0906301zM199.084274 30.4109589C196.523178 28.704 193.643178 27.6723288 190.726356 27.6723288 186.884384 27.6723288 182.723507 29.5219726 182.723507 34.2877808 182.723507 41.0097534 193.926575 38.6623562 193.926575 41.6146849 193.926575 43.3223014 191.829041 43.5353425 190.903233 43.5353425 188.378301 43.5353425 186.635836 42.5043288 184.928219 40.867726L181.478137 43.8549041C184.252932 46.416 186.599671 47.5896986 190.725699 47.5896986 194.850411 47.5896986 199.261151 45.8110685 199.261151 40.8322192 199.261151 33.7545205 188.058082 36.422137 188.058082 33.1857534 188.058082 32.2257534 189.053589 31.728 190.440329 31.728 192.183452 31.728 194.566356 32.4394521 195.668384 33.7551781L199.084274 30.4109589zM61.9936438 10.5277808C60.1795068 7.22038356 57.0851507 5.904 53.4930411 5.904 48.2649863 5.904 44.1034521 9.60263014 44.1034521 15.8623562 44.1034521 22.2286027 48.0157808 25.8213699 53.6705753 25.8213699 57.2981918 25.8213699 60.3925479 23.8296986 62.0995068 20.8063562L58.1161644 18.7791781C57.2265205 20.9135342 55.8752877 21.5533151 54.1683288 21.5533151 51.216 21.5533151 49.8647671 19.0993973 49.8647671 15.8623562 49.8647671 12.6259726 51.0029589 10.1720548 54.1683288 10.1720548 55.0218082 10.1720548 56.7294247 10.6343014 57.7249315 12.7686575L61.9936438 10.5277808zM63.3468493 25.3229589L68.8951233 25.3229589 68.8951233 14.3684384C68.8951233 12.2702466 70.2108493 11.7008219 73.5189041 11.309589L74.1231781 11.2385753 74.0876712 6.33073973C72.1315068 6.47342466 70.1043288 7.18421918 68.8951233 8.32241096L68.8951233 6.40175342 63.3468493 6.40175342 63.3468493 25.3229589zM92.966137 17.0005479C92.9306301 11.1675616 90.5832329 5.904 83.6830685 5.904 77.9210959 5.904 74.4 9.74531507 74.4 16.4317808 74.4 21.7663562 77.8145753 25.8213699 83.6830685 25.8213699 87.9156164 25.8213699 90.9383014 24.1499178 92.8589589 20.5933151L88.6974247 18.4234521C87.0969863 20.6998356 86.1363288 21.7663562 84.0736438 21.7663562 82.2956712 21.7663562 79.9837808 20.6281644 79.948274 17.0005479L92.966137 17.0005479 92.966137 17.0005479zM79.8779178 13.5866301C80.1264658 11.0965479 82.0471233 9.9590137 83.6475616 9.9590137 85.248 9.9590137 87.2396712 10.8124932 87.4172055 13.5866301L79.8779178 13.5866301zM105.69337 17.4272877C105.69337 20.3079452 104.057425 21.7663562 101.887562 21.7663562 100.535671 21.7663562 99.2909589 21.1259178 99.2909589 19.6326575 99.2909589 18.1032329 100.571178 17.5699726 101.958575 17.1787397L105.69337 16.1115616 105.69337 17.4272877 105.69337 17.4272877zM111.027945 11.3812603C110.992438 7.11320548 107.756055 5.904 102.599014 5.904 100.037918 5.904 94.9880548 6.40175342 94.809863 11.8435068L100.145096 11.8435068C100.429808 9.95835616 101.28263 9.31857534 103.06126 9.31857534 104.555178 9.31857534 105.69337 9.92284932 105.69337 11.3457534L105.69337 12.9106849 103.666192 13.1953973C97.6201644 14.0488767 93.9563836 15.6493151 93.9563836 20.2020822 93.9563836 23.8296986 96.6595068 25.8213699 100.287123 25.8213699 102.278795 25.8213699 105.052932 24.8613699 105.977425 23.3674521L106.048438 23.3674521C106.083945 24.0078904 106.191123 24.6831781 106.404164 25.3236164L111.525699 25.3236164C111.063452 24.1499178 111.027945 22.6921644 111.027945 21.3757808L111.027945 11.3812603 111.027945 11.3812603zM124.076055 6.75747945L120.768 6.75747945 120.768 1.28021918 115.219726 1.28021918 115.219726 6.75747945 112.51726 6.75747945 112.51726 10.1713973 115.219726 10.1713973 115.219726 20.130411C115.219726 22.8690411 115.895671 25.8207123 120.62663 25.8207123 121.835836 25.8207123 123.471781 25.6786849 124.183233 25.6070137L124.183233 21.2324384C123.897863 21.2679452 123.116055 21.3389589 122.511781 21.3389589 121.514959 21.3389589 120.768658 20.947726 120.768658 19.4538082L120.768658 10.1720548 124.076712 10.1720548 124.076712 6.75747945 124.076055 6.75747945zM126.165041 6.40175342L126.165041 25.3229589 131.713315 25.3229589 131.713315 6.40175342 126.165041 6.40175342zM131.713973 4.26805479L131.713973 0 126.165699 0 126.165699 4.26805479 131.713973 4.26805479z"/>
    <polygon points="139.18 25.323 144.764 25.323 151.237 6.402 145.333 6.402 142.061 19.775 141.991 19.775 138.717 6.402 132.779 6.402"/>
    <path d="M169.15463,17.0005479 C169.119123,11.1675616 166.771726,5.904 159.872219,5.904 C154.109589,5.904 150.589808,9.74531507 150.589808,16.4317808 C150.589808,21.7663562 154.003068,25.8213699 159.872219,25.8213699 C164.104767,25.8213699 167.127452,24.1499178 169.04811,20.5933151 L164.886575,18.4234521 C163.286137,20.6998356 162.325479,21.7663562 160.263452,21.7663562 C158.485479,21.7663562 156.172932,20.6281644 156.138082,17.0005479 L169.15463,17.0005479 L169.15463,17.0005479 Z M156.066411,13.5866301 C156.315616,11.0965479 158.235616,9.9590137 159.836055,9.9590137 C161.436493,9.9590137 163.428822,10.8124932 163.606356,13.5866301 L156.066411,13.5866301 Z"/>
    <g transform="translate(0 5.26)">
      <path d="M20.7793973,0.325479452 C15.0706849,0.325479452 10.0471233,2.43813699 6.1650411,6.37676712 C2.16920548,10.4304658 0,15.6821918 0,21.1627397 C0,26.6998356 2.112,31.8378082 6.10849315,35.8343014 C10.1043288,39.830137 15.2995068,41.9993425 20.7793973,41.9993425 C26.2592877,41.9993425 31.5688767,39.830137 35.6791233,35.7770959 C39.5612055,31.9522192 41.616,26.8714521 41.616,21.1627397 C41.616,15.5112329 39.5612055,10.3732603 35.6219178,6.4339726 C31.6260822,2.43813699 26.4881096,0.325479452 20.7793973,0.325479452 Z M20.8366027,4.09380822 C25.517589,4.09380822 29.6850411,5.86323288 32.9391781,9.11736986 C36.1354521,12.3143014 37.8483288,16.5389589 37.8483288,21.1627397 C37.8483288,25.843726 36.1926575,29.9539726 32.995726,33.0943562 C29.6271781,36.4050411 25.2887671,38.1751233 20.8359452,38.1751233 C16.3259178,38.1751233 12.1012603,36.4056986 8.84778082,33.1515616 C5.59364384,29.8967671 3.7670137,25.6155616 3.7670137,21.1627397 C3.7670137,16.6527123 5.59364384,12.3715068 8.84778082,9.06016438 C12.0447123,5.80668493 16.1556164,4.09380822 20.8366027,4.09380822 Z"/>
      <path d="M20.5676712 17.7001644C19.3906849 15.5539726 17.3825753 14.6998356 15.0516164 14.6998356 11.6587397 14.6998356 8.95824658 17.0998356 8.95824658 21.1627397 8.95824658 25.2940274 11.4969863 27.6256438 15.1673425 27.6256438 17.5219726 27.6256438 19.5294247 26.3329315 20.6373699 24.3715068L18.0519452 23.0557808C17.4746301 24.4405479 16.598137 24.8561096 15.4901918 24.8561096 13.574137 24.8561096 12.6976438 23.2635616 12.6976438 21.1633973 12.6976438 19.0632329 13.4360548 17.4700274 15.4901918 17.4700274 16.0438356 17.4700274 17.1517808 17.7705205 17.798137 19.1546301L20.5676712 17.7001644zM32.5887123 17.7001644C31.4110685 15.5539726 29.4036164 14.6998356 27.0726575 14.6998356 23.6797808 14.6998356 20.9786301 17.0998356 20.9786301 21.1627397 20.9786301 25.2940274 23.5180274 27.6256438 27.187726 27.6256438 29.5423562 27.6256438 31.5498082 26.3329315 32.6577534 24.3715068L30.0723288 23.0557808C29.4956712 24.4405479 28.6185205 24.8561096 27.5105753 24.8561096 25.5951781 24.8561096 24.7173699 23.2635616 24.7173699 21.1633973 24.7173699 19.0632329 25.4564384 17.4700274 27.5105753 17.4700274 28.0642192 17.4700274 29.1721644 17.7705205 29.8191781 19.1546301L32.5887123 17.7001644z"/>
    </g>
  </g>
</svg>
