<svg xmlns="http://www.w3.org/2000/svg" width="64" height="64" viewBox="0 0 64 64">
  <path d="M183.943,30 C192.931,30 200.513,33.085 206.685,39.257 C212.893,45.467 216,53.048 216,62 C216,70.991 212.951,78.476 206.855,84.456 C200.379,90.819 192.742,94 183.943,94 C175.294,94 167.79,90.856 161.429,84.57 C155.144,78.284 152,70.762 152,62 C152,53.239 155.144,45.658 161.429,39.258 C167.601,33.085 175.104,30 183.943,30 Z M184.057,35.772 C176.781,35.772 170.629,38.325 165.6,43.429 C160.38,48.763 157.771,54.954 157.771,62.001 C157.771,69.087 160.361,75.221 165.541,80.399 C170.722,85.581 176.893,88.17 184.055,88.17 C191.178,88.17 197.389,85.563 202.684,80.342 C207.713,75.504 210.227,69.39 210.227,61.999 C210.227,54.723 207.674,48.534 202.571,43.428 C197.467,38.324 191.295,35.772 184.057,35.772 Z M192.629,54.057 L192.629,67.142 L188.973,67.142 L188.973,82.684 L179.029,82.684 L179.029,67.143 L175.373,67.143 L175.373,54.057 C175.373,53.485 175.573,53 175.972,52.6 C176.373,52.201 176.859,52 177.429,52 L190.573,52 C191.106,52 191.583,52.2 192.001,52.6 C192.418,53 192.629,53.486 192.629,54.057 Z M179.542,45.829 C179.542,42.821 181.027,41.315 184,41.315 C186.973,41.315 188.457,42.819 188.457,45.829 C188.457,48.8 186.971,50.286 184,50.286 C181.029,50.286 179.542,48.8 179.542,45.829 Z" transform="translate(-152 -30)"/>
</svg>
