<svg xmlns="http://www.w3.org/2000/svg" width="24" height="24" viewBox="0 0 24 24">
  <g fill="none" fill-rule="evenodd">
    <circle cx="12" cy="12" r="12" fill="#FFF"/>
    <path fill="#868E96" fill-rule="nonzero" d="M5.79829279,15.3721521 L3,15.3721521 L3,8.09943172 L5.76988372,8.09943172 C8.01419976,8.09943172 9.42044842,9.46306679 9.42044842,11.7357919 C9.42044842,14.008517 8.01419976,15.3721521 5.79829279,15.3721521 Z M4.97442994,13.6960173 L5.72727013,13.6960173 C6.80681455,13.6960173 7.43181396,13.2556768 7.43181396,11.7357919 C7.43181396,10.215907 6.80681455,9.77556649 5.670452,9.77556649 L4.97442994,9.77556649 L4.97442994,13.6960173 Z M17.2949933,11.7357919 C17.2949933,14.1647668 15.7324948,15.4715838 13.7580648,15.4715838 C11.7694304,15.4715838 10.2211364,14.1505623 10.2211364,11.7357919 C10.2211364,9.30681694 11.7694304,8 13.7580648,8 C15.7324948,8 17.2949933,9.30681694 17.2949933,11.7357919 Z M15.2637452,11.7357919 C15.2637452,10.428975 14.7381775,9.71874836 13.7580648,9.71874836 C12.7779521,9.71874836 12.2523845,10.428975 12.2523845,11.7357919 C12.2523845,13.0426088 12.7779521,13.7528354 13.7580648,13.7528354 C14.7381775,13.7528354 15.2637452,13.0426088 15.2637452,11.7357919 Z M20.0985208,8.09943172 L20.0985208,15.3721521 L18.1240909,15.3721521 L18.1240909,8.09943172 L20.0985208,8.09943172 Z"/>
  </g>
</svg>
