<svg xmlns="http://www.w3.org/2000/svg" width="22" height="23" viewBox="0 0 22 23">
  <path fill="none" stroke="#5B507A" stroke-linecap="round" stroke-linejoin="round" stroke-width="2" d="M9,19.0267931 C4,20.5267931 4,16.5267931 2,16.0267931 M16,22.0267931 L16,18.1567931 C16.0758831,17.1921904 15.7334911,16.2415062 15.06,15.5467931 C18.2,15.1967931 21.5,14.0067931 21.5,8.54679311 C21.4997434,7.15062012 20.9626921,5.80799192 20,4.79679311 C20.4558559,3.57529965 20.423624,2.22514248 19.91,1.02679311 C19.91,1.02679311 18.73,0.676793107 16,2.50679311 C13.7080091,1.88561485 11.2919909,1.88561485 9,2.50679311 C6.27,0.676793107 5.09,1.02679311 5.09,1.02679311 C4.576376,2.22514248 4.54414413,3.57529965 5,4.79679311 C4.03012711,5.81549279 3.49252265,7.17025603 3.49992303,8.57679311 C3.49992303,13.9967931 6.8,15.1867931 9.94,15.5767931 C9.27461958,16.2643567 8.93287138,17.2023464 9,18.1567931 L9,22.0267931" transform="translate(-1)"/>
</svg>
