<svg xmlns="http://www.w3.org/2000/svg" width="32" height="32" viewBox="0 0 32 32">
  <path fill="#161514" fill-rule="evenodd" d="M1123.99853,32 C1115.16437,32 1108,39.1633875 1108,48.0004911 C1108,55.0695847 1112.58406,61.0660855 1118.94202,63.1818042 C1119.74253,63.3291384 1120.03426,62.8350778 1120.03426,62.4107554 C1120.03426,62.0316155 1120.0205,61.0248319 1120.01265,59.6899843 C1115.56217,60.6564965 1114.62316,57.5447988 1114.62316,57.5447988 C1113.89533,55.696246 1112.84631,55.2041499 1112.84631,55.2041499 C1111.3936,54.2120998 1112.95632,54.2317444 1112.95632,54.2317444 C1114.56226,54.3447006 1115.40698,55.8809049 1115.40698,55.8809049 C1116.83416,58.3256699 1119.15221,57.6194481 1120.06372,57.2098591 C1120.20909,56.1765554 1120.62261,55.4713159 1121.07935,55.0715492 C1117.52663,54.6678535 1113.79122,53.294699 1113.79122,47.163633 C1113.79122,45.417232 1114.41493,43.9880905 1115.43841,42.8703152 C1115.2734,42.4656374 1114.72433,40.8380859 1115.59557,38.6359311 C1115.59557,38.6359311 1116.93827,38.2057153 1119.99497,40.2762516 C1121.27088,39.9206851 1122.64011,39.7438841 1124.00049,39.7370085 C1125.35989,39.7438841 1126.72814,39.9206851 1128.00602,40.2762516 C1131.06074,38.2057153 1132.40149,38.6359311 1132.40149,38.6359311 C1133.27469,40.8380859 1132.72562,42.4656374 1132.56159,42.8703152 C1133.58703,43.9880905 1134.20584,45.417232 1134.20584,47.163633 C1134.20584,53.3104147 1130.46453,54.6629424 1126.90101,55.0587802 C1127.47463,55.5528408 1127.98637,56.5291752 1127.98637,58.0221615 C1127.98637,60.1604715 1127.96673,61.8862457 1127.96673,62.4107554 C1127.96673,62.8390067 1128.2555,63.3369962 1129.06682,63.180822 C1135.41987,61.0601921 1140,55.0676202 1140,48.0004911 C1140,39.1633875 1132.83563,32 1123.99853,32" transform="translate(-1108 -32)"/>
</svg>
