<svg xmlns="http://www.w3.org/2000/svg" width="16" height="16" viewBox="0 0 16 16">
  <path fill="#2E294E" d="M360.66758,4.58950808 C360.832341,4.42474788 361.099445,4.42474788 361.264205,4.58950808 L368.626435,11.9517037 C368.791161,12.1164982 368.791161,12.3836027 368.626435,12.5483629 L361.26424,19.9105584 C361.099445,20.0752843 360.832341,20.0752843 360.66758,19.9105584 L359.97153,19.2144732 C359.806804,19.049713 359.806804,18.7826086 359.97153,18.6178484 L365.425301,13.1640764 L353.421874,13.1640764 C353.188896,13.1640764 353,12.9751807 353,12.7422024 L353,11.7578298 C353,11.5248515 353.188896,11.3359558 353.421874,11.3359558 L365.425301,11.3359558 L359.97153,5.88221816 C359.806804,5.71742364 359.806804,5.45031917 359.97153,5.28559331 L360.66758,4.58950808 Z" transform="translate(-353 -4)"/>
</svg>
