<svg xmlns="http://www.w3.org/2000/svg" width="48" height="48" viewBox="0 0 48 48">
  <g fill="none" fill-rule="evenodd">
    <circle cx="24" cy="24" r="23.5" fill="#2E294E" stroke="#2E294E"/>
    <path fill="#FFF" stroke="#FFF" stroke-linecap="round" stroke-linejoin="round" stroke-width="2" d="M21,31.0267931 C16,32.5267931 16,28.5267931 14,28.0267931 M28,34.0267931 L28,30.1567931 C28.0758831,29.1921904 27.7334911,28.2415062 27.06,27.5467931 C30.2,27.1967931 33.5,26.0067931 33.5,20.5467931 C33.4997434,19.1506201 32.9626921,17.8079919 32,16.7967931 C32.4558559,15.5752997 32.423624,14.2251425 31.91,13.0267931 C31.91,13.0267931 30.73,12.6767931 28,14.5067931 C25.7080091,13.8856149 23.2919909,13.8856149 21,14.5067931 C18.27,12.6767931 17.09,13.0267931 17.09,13.0267931 C16.576376,14.2251425 16.5441441,15.5752997 17,16.7967931 C16.0301271,17.8154928 15.4925227,19.170256 15.5,20.5767931 C15.5,25.9967931 18.8,27.1867931 21.94,27.5767931 C21.2746196,28.2643567 20.9328714,29.2023464 21,30.1567931 L21,34.0267931"/>
  </g>
</svg>
