<svg xmlns="http://www.w3.org/2000/svg" width="154" height="32" viewBox="0 0 154 32">
  <path fill="#2E294E" d="M48.5568177,6.36435483 L48.5568177,4.81819153 L56.6803894,4.81819153 L56.6803894,6.36435483 L53.5333754,6.36435483 L53.5333754,15 L51.7038317,15 L51.7038317,6.36435483 L48.5568177,6.36435483 Z M59.9616451,10.5255724 L59.9616451,15 L58.1619309,15 L58.1619309,4.81819153 L59.9218724,4.81819153 L59.9218724,8.66122764 L60.011361,8.66122764 C60.3643436,7.79617164 61.1100815,7.26421192 62.2833759,7.26421192 C63.8693119,7.26421192 64.913345,8.29333026 64.913345,10.1377887 L64.913345,15 L63.1136308,15 L63.1136308,10.4161976 C63.1136308,9.38707922 62.5568131,8.78551729 61.6122117,8.78551729 C60.647724,8.78551729 59.9616451,9.42188032 59.9616451,10.5255724 Z M70.1235754,15.1491476 C67.821731,15.1491476 66.4147722,13.6228706 66.4147722,11.2265661 C66.4147722,8.87003426 67.8416174,7.26421192 70.0291153,7.26421192 C71.9083749,7.26421192 73.5191688,8.44247784 73.5191688,11.1221628 L73.5191688,11.6740089 L68.1995716,11.6740089 C68.2144864,12.981536 68.9850822,13.7471603 70.1484334,13.7471603 C70.9240008,13.7471603 71.5205912,13.4090924 71.7641989,12.7627862 L73.444595,12.9517065 C73.1264135,14.27912 71.9034033,15.1491476 70.1235754,15.1491476 Z M68.2045432,10.4609418 L71.7940284,10.4609418 C71.7840852,9.42188032 71.0880632,8.66619922 70.0539732,8.66619922 C68.9801106,8.66619922 68.2592306,9.48651094 68.2045432,10.4609418 Z M82.6122111,4.81819153 L84.4417548,4.81819153 L84.4417548,11.9772756 C84.4367832,13.9460237 83.1193129,15.1392044 81.1555364,15.1392044 C79.3707369,15.1392044 77.9985792,14.1747167 77.9985792,12.2954571 L79.8330945,12.2954571 C79.8480092,13.1207404 80.3998553,13.6228706 81.2251386,13.6228706 C82.1100809,13.6228706 82.6072395,13.0511382 82.6122111,11.9772756 L82.6122111,4.81819153 Z M89.6967289,15.1491476 C87.4595151,15.1491476 86.0376415,13.5731548 86.0376415,11.2116513 C86.0376415,8.84517632 87.4595151,7.26421192 89.6967289,7.26421192 C91.9339427,7.26421192 93.3558163,8.84517632 93.3558163,11.2116513 C93.3558163,13.5731548 91.9339427,15.1491476 89.6967289,15.1491476 Z M89.7066721,13.7073876 C90.9247107,13.7073876 91.5312442,12.6036955 91.5312442,11.2066798 C91.5312442,9.80966404 90.9247107,8.69105715 89.7066721,8.69105715 C88.4687471,8.69105715 87.8622136,9.80966404 87.8622136,11.2066798 C87.8622136,12.6036955 88.4687471,13.7073876 89.7066721,13.7073876 Z M99.7443127,11.7883553 L99.7443127,7.36364365 L101.544027,7.36364365 L101.544027,15 L99.7990001,15 L99.7990001,13.642757 L99.7194547,13.642757 C99.3714437,14.4978698 98.5660467,15.0994317 97.4225819,15.0994317 C95.9211629,15.0994317 94.8771298,14.0603702 94.8771298,12.2258549 L94.8771298,7.36364365 L96.676844,7.36364365 L96.676844,11.9474461 C96.676844,12.9169054 97.253548,13.5284105 98.118604,13.5284105 C98.9140578,13.5284105 99.7443127,12.9517065 99.7443127,11.7883553 Z M103.393465,15 L103.393465,7.36364365 L105.138492,7.36364365 L105.138492,8.63636971 L105.218037,8.63636971 C105.496446,7.75142737 106.227269,7.25426875 107.102268,7.25426875 C107.301132,7.25426875 107.584512,7.2741551 107.748575,7.30398461 L107.748575,8.95952281 C107.594455,8.90980694 107.216615,8.8551195 106.913348,8.8551195 C105.924002,8.8551195 105.193179,9.54119839 105.193179,10.5106577 L105.193179,15 L103.393465,15 Z M110.746446,10.5255724 L110.746446,15 L108.946732,15 L108.946732,7.36364365 L110.666901,7.36364365 L110.666901,8.66122764 L110.756389,8.66122764 C111.1044,7.8110864 111.889911,7.26421192 113.033376,7.26421192 C114.609369,7.26421192 115.653402,8.30824502 115.64843,10.1377887 L115.648448,15 L113.848716,15 L113.848716,10.4161976 C113.848716,9.39702239 113.291898,8.78551729 112.362212,8.78551729 C111.412639,8.78551729 110.746446,9.42188032 110.746446,10.5255724 Z M119.680395,15.1541192 C118.22372,15.1541192 117.124999,14.3586654 117.124999,12.8572464 C117.124999,11.1370775 118.541902,10.6946064 120.023434,10.5355156 C121.370734,10.3913396 121.912637,10.3664817 121.912637,9.84943673 L121.912637,9.81960721 C121.912637,9.0688977 121.455251,8.64134129 120.620025,8.64134129 C119.740054,8.64134129 119.232952,9.08878405 119.053975,9.61080059 L117.373579,9.37216446 C117.771306,7.98012033 119.004259,7.26421192 120.610081,7.26421192 C122.066756,7.26421192 123.712351,7.87074544 123.712351,9.88920942 L123.712351,15 L121.982239,15 L121.982239,13.9509953 L121.92258,13.9509953 C121.594455,14.5923299 120.878547,15.1541192 119.680395,15.1541192 Z M120.147724,13.8316773 C121.23153,13.8316773 121.917609,13.1107973 121.917609,12.260656 L121.917609,11.3607989 C121.683944,11.5497192 120.739343,11.6690373 120.267042,11.7336679 C119.461645,11.8480144 118.860083,12.1363664 118.860083,12.8274168 C118.860083,13.4886378 119.397014,13.8316773 120.147724,13.8316773 Z M127.326702,4.81819153 L127.326702,15 L125.526988,15 L125.526988,4.81819153 L127.326702,4.81819153 Z M135.98224,15.1491476 C133.745026,15.1491476 132.323153,13.5731548 132.323153,11.2116513 C132.323153,8.84517632 133.745026,7.26421192 135.98224,7.26421192 C138.219454,7.26421192 139.641328,8.84517632 139.641328,11.2116513 C139.641328,13.5731548 138.219454,15.1491476 135.98224,15.1491476 Z M135.992183,13.7073876 C137.210222,13.7073876 137.816756,12.6036955 137.816756,11.2066798 C137.816756,9.80966404 137.210222,8.69105715 135.992183,8.69105715 C134.754258,8.69105715 134.147725,9.80966404 134.147725,11.2066798 C134.147725,12.6036955 134.754258,13.7073876 135.992183,13.7073876 Z M145.080251,7.36364365 L145.080251,8.75568777 L143.494315,8.75568777 L143.494315,15 L141.694601,15 L141.694601,8.75568777 L140.566051,8.75568777 L140.566051,7.36364365 L141.694601,7.36364365 L141.694601,6.64276365 C141.694601,5.10157194 142.753549,4.34091926 144.080962,4.34091926 C144.702411,4.34091926 145.214484,4.4701805 145.448148,4.54972588 L145.085223,5.94177 C144.936075,5.89702573 144.697439,5.83239511 144.414059,5.83239511 C143.742894,5.83239511 143.494315,6.16549138 143.494315,6.76208172 L143.494315,7.36364365 L145.080251,7.36364365 Z M58.1022631,27.9090958 C58.1022631,31.2002858 56.0937423,33.1392044 53.4240005,33.1392044 C50.7492872,33.1392044 48.7457379,31.1953142 48.7457379,27.9090958 C48.7457379,24.6179057 50.7492872,22.6789871 53.4240005,22.6789871 C56.0937423,22.6789871 58.1022631,24.6179057 58.1022631,27.9090958 Z M56.2478615,27.9090958 C56.2478615,25.5923366 55.0845103,24.3345253 53.4240005,24.3345253 C51.7684623,24.3345253 50.6001396,25.5923366 50.6001396,27.9090958 C50.6001396,30.2258549 51.7684623,31.4836662 53.4240005,31.4836662 C55.0845103,31.4836662 56.2478615,30.2258549 56.2478615,27.9090958 Z M59.7727264,35.8636336 L59.7727264,25.3636436 L61.5426111,25.3636436 L61.5426111,26.6264265 L61.6470144,26.6264265 C61.9204516,26.0745805 62.4822409,25.2642119 63.8295407,25.2642119 C65.5944538,25.2642119 66.9815263,26.6463129 66.9815263,29.191765 C66.9815263,31.7073876 65.6342265,33.1342328 63.8345123,33.1342328 C62.5220135,33.1342328 61.9303948,32.3536938 61.6470144,31.7968761 L61.5724406,31.7968761 L61.5724406,35.8636336 L59.7727264,35.8636336 Z M61.5376395,29.1818218 C61.5376395,30.6633545 62.1839457,31.6576717 63.3323821,31.6576717 C64.5205912,31.6576717 65.147011,30.6136386 65.147011,29.1818218 C65.147011,27.7599482 64.5305344,26.740773 63.3323821,26.740773 C62.1740025,26.740773 61.5376395,27.7002891 61.5376395,29.1818218 Z M71.8984334,33.1491476 C69.596589,33.1491476 68.1896301,31.6228706 68.1896301,29.2265661 C68.1896301,26.8700343 69.6164753,25.2642119 71.8039733,25.2642119 C73.6832328,25.2642119 75.2940267,26.4424778 75.2940267,29.1221628 L75.2940267,29.6740089 L69.9744295,29.6740089 C69.9893443,30.981536 70.7599402,31.7471603 71.9232913,31.7471603 C72.6988588,31.7471603 73.2954491,31.4090924 73.5390568,30.7627862 L75.219453,30.9517065 C74.9012714,32.27912 73.6782612,33.1491476 71.8984334,33.1491476 Z M69.9794011,28.4609418 L73.5688863,28.4609418 C73.5589432,27.4218803 72.8629211,26.6661992 71.8288312,26.6661992 C70.7549686,26.6661992 70.0340886,27.4865109 69.9794011,28.4609418 Z M78.6150542,28.5255724 L78.6150542,33 L76.81534,33 L76.81534,25.3636436 L78.5355088,25.3636436 L78.5355088,26.6612276 L78.6249974,26.6612276 C78.9730084,25.8110864 79.758519,25.2642119 80.9019839,25.2642119 C82.4779767,25.2642119 83.5220098,26.308245 83.5170382,28.1377887 L83.5170559,33 L81.717324,33 L81.717324,28.4161976 C81.717324,27.3970224 81.1605063,26.7855173 80.2308197,26.7855173 C79.2812468,26.7855173 78.6150542,27.4218803 78.6150542,28.5255724 Z M94.4396244,25.6171945 C94.3451643,24.7521385 93.6193127,24.2400652 92.5205922,24.2400652 C91.3671842,24.2400652 90.6811053,24.8018544 90.6761337,25.5674787 C90.6661905,26.4176199 91.5710192,26.7706025 92.4062457,26.969466 L93.3607902,27.2081021 C94.8920388,27.5710279 96.3487135,28.3764249 96.3536851,30.141338 C96.3487135,31.9360806 94.9318115,33.1541192 92.4907627,33.1541192 C90.1193161,33.1541192 88.6129255,32.0156259 88.5383517,29.9921904 L90.3529806,29.9921904 C90.4275544,31.0610814 91.3224399,31.5781264 92.4758479,31.5781264 C93.6789718,31.5781264 94.5042551,30.9964508 94.5092267,30.1264232 C94.5042551,29.335941 93.7784035,28.9929015 92.6796829,28.7144927 L91.5213034,28.4161976 C89.8458788,27.9836696 88.8068173,27.1434715 88.8068173,25.6818252 C88.8018457,23.882111 90.4076681,22.6789871 92.5454501,22.6789871 C94.7130617,22.6789871 96.1796796,23.8970257 96.2144807,25.6171945 L94.4396244,25.6171945 Z M101.245735,33.1491476 C99.0085208,33.1491476 97.5866472,31.5731548 97.5866472,29.2116513 C97.5866472,26.8451763 99.0085208,25.2642119 101.245735,25.2642119 C103.482948,25.2642119 104.904822,26.8451763 104.904822,29.2116513 C104.904822,31.5731548 103.482948,33.1491476 101.245735,33.1491476 Z M101.255678,31.7073876 C102.473716,31.7073876 103.08025,30.6036955 103.08025,29.2066798 C103.08025,27.809664 102.473716,26.6910572 101.255678,26.6910572 C100.017753,26.6910572 99.4112193,27.809664 99.4112193,29.2066798 C99.4112193,30.6036955 100.017753,31.7073876 101.255678,31.7073876 Z M111.293318,29.7883553 L111.293318,25.3636436 L113.093033,25.3636436 L113.093033,33 L111.348006,33 L111.348006,31.642757 L111.26846,31.642757 C110.920449,32.4978698 110.115052,33.0994317 108.971588,33.0994317 C107.470169,33.0994317 106.426135,32.0603702 106.426135,30.2258549 L106.426135,25.3636436 L108.22585,25.3636436 L108.22585,29.9474461 C108.22585,30.9169054 108.802554,31.5284105 109.66761,31.5284105 C110.463063,31.5284105 111.293318,30.9517065 111.293318,29.7883553 Z M114.942471,33 L114.942471,25.3636436 L116.687497,25.3636436 L116.687497,26.6363697 L116.767043,26.6363697 C117.045452,25.7514274 117.771303,25.2542688 118.651274,25.2542688 C119.063916,25.2542688 119.406955,25.3636436 119.675421,25.5326776 L119.118603,27.0241534 C118.924711,26.9346649 118.70099,26.8650627 118.407666,26.8650627 C117.468036,26.8650627 116.742185,27.54617 116.742185,28.5106577 L116.742185,33 L114.942471,33 Z M124.065337,33.1491476 C121.783379,33.1491476 120.406249,31.5234389 120.406249,29.2116513 C120.406249,26.8799774 121.81818,25.2642119 124.055394,25.2642119 C125.919738,25.2642119 127.212351,26.3529893 127.336641,28.0085275 L125.616472,28.0085275 C125.477267,27.2727327 124.945308,26.7159151 124.080252,26.7159151 C122.971588,26.7159151 122.230822,27.6406301 122.230822,29.1818218 C122.230822,30.7428999 122.956673,31.6825297 124.080252,31.6825297 C124.870734,31.6825297 125.462353,31.210229 125.616472,30.3899173 L127.336641,30.3899173 C127.207379,32.0106544 125.984369,33.1491476 124.065337,33.1491476 Z M132.19886,33.1491476 C129.897015,33.1491476 128.490056,31.6228706 128.490056,29.2265661 C128.490056,26.8700343 129.916901,25.2642119 132.104399,25.2642119 C133.983659,25.2642119 135.594453,26.4424778 135.594453,29.1221628 L135.594453,29.6740089 L130.274856,29.6740089 C130.28977,30.981536 131.060366,31.7471603 132.223717,31.7471603 C132.999285,31.7471603 133.595875,31.4090924 133.839483,30.7627862 L135.519879,30.9517065 C135.201698,32.27912 133.978687,33.1491476 132.19886,33.1491476 Z M130.279827,28.4609418 L133.869312,28.4609418 C133.859369,27.4218803 133.163347,26.6661992 132.129257,26.6661992 C131.055395,26.6661992 130.334515,27.4865109 130.279827,28.4609418 Z M146.203829,25.6171945 C146.109369,24.7521385 145.383517,24.2400652 144.284797,24.2400652 C143.131389,24.2400652 142.44531,24.8018544 142.440338,25.5674787 C142.430395,26.4176199 143.335224,26.7706025 144.17045,26.969466 L145.124995,27.2081021 C146.656243,27.5710279 148.112918,28.3764249 148.11789,30.141338 C148.112918,31.9360806 146.696016,33.1541192 144.254967,33.1541192 C141.883521,33.1541192 140.37713,32.0156259 140.302556,29.9921904 L142.117185,29.9921904 C142.191759,31.0610814 143.086644,31.5781264 144.240052,31.5781264 C145.443176,31.5781264 146.26846,30.9964508 146.273431,30.1264232 C146.26846,29.335941 145.542608,28.9929015 144.443887,28.7144927 L143.285508,28.4161976 C141.610083,27.9836696 140.571022,27.1434715 140.571022,25.6818252 C140.56605,23.882111 142.171873,22.6789871 144.309655,22.6789871 C146.477266,22.6789871 147.943884,23.8970257 147.978685,25.6171945 L146.203829,25.6171945 Z M153.009939,33.1491476 C150.772725,33.1491476 149.350852,31.5731548 149.350852,29.2116513 C149.350852,26.8451763 150.772725,25.2642119 153.009939,25.2642119 C155.247153,25.2642119 156.669027,26.8451763 156.669027,29.2116513 C156.669027,31.5731548 155.247153,33.1491476 153.009939,33.1491476 Z M153.019882,31.7073876 C154.237921,31.7073876 154.844454,30.6036955 154.844454,29.2066798 C154.844454,27.809664 154.237921,26.6910572 153.019882,26.6910572 C151.781957,26.6910572 151.175424,27.809664 151.175424,29.2066798 C151.175424,30.6036955 151.781957,31.7073876 153.019882,31.7073876 Z M162.10795,25.3636436 L162.10795,26.7556878 L160.522014,26.7556878 L160.522014,33 L158.7223,33 L158.7223,26.7556878 L157.59375,26.7556878 L157.59375,25.3636436 L158.7223,25.3636436 L158.7223,24.6427637 C158.7223,23.1015719 159.781248,22.3409193 161.108661,22.3409193 C161.730109,22.3409193 162.242183,22.4701805 162.475847,22.5497259 L162.112922,23.94177 C161.963774,23.8970257 161.725138,23.8323951 161.441757,23.8323951 C160.770593,23.8323951 160.522014,24.1654914 160.522014,24.7620817 L160.522014,25.3636436 L162.10795,25.3636436 Z M167.333092,25.3636436 L167.333092,26.7556878 L165.826701,26.7556878 L165.826701,30.7031272 C165.826701,31.4289788 166.189627,31.5880695 166.642042,31.5880695 C166.865763,31.5880695 167.069598,31.5433253 167.16903,31.5184673 L167.472296,32.9254262 C167.278405,32.9900568 166.925422,33.0894886 166.413349,33.1044033 C165.061077,33.144176 164.017044,32.4382108 164.026987,31.0014224 L164.026987,26.7556878 L162.943181,26.7556878 L162.943181,25.3636436 L164.026987,25.3636436 L164.026987,23.5340999 L165.826701,23.5340999 L165.826701,25.3636436 L167.333092,25.3636436 Z M170.415481,33 L168.257812,25.3636436 L170.092327,25.3636436 L171.434656,30.7329567 L171.504258,30.7329567 L172.876416,25.3636436 L174.691045,25.3636436 L176.063202,30.7031272 L176.137776,30.7031272 L177.460218,25.3636436 L179.299705,25.3636436 L177.137065,33 L175.262777,33 L173.83096,27.8394936 L173.726557,27.8394936 L172.29474,33 L170.415481,33 Z M182.75994,33.1541192 C181.303265,33.1541192 180.204545,32.3586654 180.204545,30.8572464 C180.204545,29.1370775 181.621447,28.6946064 183.10298,28.5355156 C184.45028,28.3913396 184.992182,28.3664817 184.992182,27.8494367 L184.992182,27.8196072 C184.992182,27.0688977 184.534796,26.6413413 183.69957,26.6413413 C182.819599,26.6413413 182.312497,27.088784 182.13352,27.6108006 L180.453124,27.3721645 C180.850851,25.9801203 182.083804,25.2642119 183.689627,25.2642119 C185.146302,25.2642119 186.791897,25.8707454 186.791897,27.8892094 L186.791897,33 L185.061785,33 L185.061785,31.9509953 L185.002126,31.9509953 C184.674001,32.5923299 183.958092,33.1541192 182.75994,33.1541192 Z M183.227269,31.8316773 C184.311075,31.8316773 184.997154,31.1107973 184.997154,30.260656 L184.997154,29.3607989 C184.763489,29.5497192 183.818888,29.6690373 183.346587,29.7336679 C182.54119,29.8480144 181.939628,30.1363664 181.939628,30.8274168 C181.939628,31.4886378 182.47656,31.8316773 183.227269,31.8316773 Z M188.606533,33 L188.606533,25.3636436 L190.35156,25.3636436 L190.35156,26.6363697 L190.431105,26.6363697 C190.709514,25.7514274 191.435366,25.2542688 192.315336,25.2542688 C192.727978,25.2542688 193.071018,25.3636436 193.339483,25.5326776 L192.782666,27.0241534 C192.588774,26.9346649 192.365052,26.8650627 192.071729,26.8650627 C191.132099,26.8650627 190.406247,27.54617 190.406247,28.5106577 L190.406247,33 L188.606533,33 Z M197.779115,33.1491476 C195.477271,33.1491476 194.070312,31.6228706 194.070312,29.2265661 C194.070312,26.8700343 195.497157,25.2642119 197.684655,25.2642119 C199.563915,25.2642119 201.174709,26.4424778 201.174709,29.1221628 L201.174709,29.6740089 L195.855111,29.6740089 C195.870026,30.981536 196.640622,31.7471603 197.803973,31.7471603 C198.579541,31.7471603 199.176131,31.4090924 199.419739,30.7627862 L201.100135,30.9517065 C200.781953,32.27912 199.558943,33.1491476 197.779115,33.1491476 Z M195.860083,28.4609418 L199.449568,28.4609418 C199.439625,27.4218803 198.743603,26.6661992 197.709513,26.6661992 C196.63565,26.6661992 195.91477,27.4865109 195.860083,28.4609418 Z" transform="translate(-48 -4)"/>
</svg>
