<svg xmlns="http://www.w3.org/2000/svg" width="572.401" height="193.894" viewBox="0 0 151.448 51.301"><path style="line-height:1.25;-inkscape-font-specification:'Tamil MN'" d="M48.229 42.04h-6.677V10.932l6.677-1.86z" font-weight="400" font-family="Tamil MN" letter-spacing="-8.82" word-spacing="0" fill="#1a1a1a"/><path d="M11.368 18.896a4.63 4.63 0 110-9.26 4.63 4.63 0 010 9.26z" fill="#4063d8"/><path d="M15.152 42.04q0 2.956-.683 4.755-.661 1.819-1.88 2.811-1.22 1.013-2.936 1.344-1.716.351-3.803.351-1.406 0-2.501-.248-1.096-.227-1.84-.64-.744-.414-1.116-.972Q0 48.903 0 48.304q0-1.054.827-1.757.827-.703 2.253-.703.537 0 .971.165.414.166.745.414.33.268.599.558.248.31.434.579.476.62.786.826.33.207.599.207.29 0 .517-.145.227-.144.372-.516t.207-.992q.082-.62.082-1.592V21.06l6.76-1.86zM24.93 19.861v15.627q0 .661.249 1.24.269.558.703.972.454.413 1.033.661.6.248 1.261.248.372 0 .848-.206.475-.207.95-.58.497-.371.951-.867.476-.496.848-1.096V19.861h6.738v22.18h-6.738v-2.067q-1.323 1.136-2.832 1.819-1.488.661-2.915.661-1.653 0-3.08-.537-1.426-.559-2.48-1.489-1.054-.95-1.654-2.211-.6-1.282-.6-2.729V19.861z" style="line-height:1.25;-inkscape-font-specification:'Tamil MN'" font-weight="400" font-family="Tamil MN" letter-spacing="-8.82" word-spacing="0" fill="#1a1a1a"/><path d="M54.861 18.896a4.63 4.63 0 110-9.26 4.63 4.63 0 010 9.26z" fill="#cb3c33"/><path d="M65.986 18.896a4.63 4.63 0 110-9.26 4.63 4.63 0 010 9.26z" fill="#9558b2"/><path d="M60.424 9.26a4.63 4.63 0 110-9.26 4.63 4.63 0 010 9.26z" fill="#389826"/><path d="M51.745 21.06l6.718-1.86v22.84h-6.718zM72.728 30.568q-.972.414-1.964.972-.992.537-1.798 1.199-.807.64-1.323 1.385-.496.723-.496 1.53 0 .64.165 1.219.165.558.455.992.29.414.64.662.373.248.786.248.806 0 1.654-.496.868-.517 1.88-1.282zm6.759 11.473h-6.76v-1.778q-.557.475-1.095.868-.537.393-1.199.703-.64.29-1.467.455-.827.165-1.964.165-1.53 0-2.77-.434-1.22-.434-2.088-1.199-.847-.785-1.302-1.84-.455-1.054-.455-2.273 0-1.282.476-2.295.496-1.033 1.323-1.86.847-.827 1.963-1.488 1.137-.662 2.419-1.2 1.302-.537 2.687-.992 1.385-.454 2.729-.888l.744-.166v-2.212q0-1.054-.228-1.798-.206-.744-.6-1.199-.371-.475-.93-.682-.537-.207-1.219-.207-.806 0-1.343.207-.538.207-.869.579-.33.351-.475.827-.145.475-.145 1.013 0 .64-.144 1.22-.124.578-.476 1.033-.33.434-.93.702-.579.27-1.509.27-.703 0-1.302-.208-.579-.227-.992-.599-.414-.393-.662-.91-.227-.537-.227-1.136 0-1.158.785-2.13.786-.992 2.109-1.715 1.343-.724 3.08-1.116 1.757-.414 3.7-.414 2.377 0 4.092.434 1.737.434 2.853 1.22 1.116.785 1.654 1.902.537 1.116.537 2.5z" style="line-height:1.25;-inkscape-font-specification:'Tamil MN'" font-weight="400" font-family="Tamil MN" letter-spacing="-8.82" word-spacing="0" fill="#1a1a1a"/><g font-weight="400" font-family="Tamil MN" letter-spacing="-8.82" word-spacing="0" fill="purple"><path style="line-height:1.25;-inkscape-font-specification:'Tamil MN'" d="M93.462 22.114q-1.074 0-1.963.538-.868.537-1.489 1.467-.62.91-.95 2.13-.331 1.198-.331 2.542 0 1.86.413 3.555.434 1.695 1.2 2.997.764 1.282 1.839 2.047 1.095.765 2.439.765 1.116 0 2.005-.455.91-.455 1.633-1.22.744-.785 1.323-1.819.6-1.033 1.116-2.19l3.204.847q-.558 2.17-1.55 3.886-.992 1.695-2.377 2.873-1.365 1.157-3.122 1.778-1.736.599-3.782.599-2.295 0-4.32-.868-2.006-.889-3.514-2.398-1.489-1.509-2.357-3.514-.868-2.005-.868-4.258 0-2.46.93-4.63.93-2.191 2.522-3.824 1.592-1.654 3.741-2.605 2.15-.95 4.568-.95 2.047 0 3.7.413 1.654.413 2.812 1.157 1.178.744 1.798 1.757.64 1.013.64 2.191 0 .558-.33 1.055-.33.496-.868.888-.538.372-1.24.6-.682.207-1.385.207-.806 0-1.406-.228-.6-.227-1.013-.579-.413-.372-.62-.847-.207-.476-.207-.972t-.04-1.012q-.042-.538-.249-.951-.207-.434-.661-.703-.434-.269-1.24-.269zM116.905 42.454q-2.646 0-4.899-.868t-3.886-2.377q-1.633-1.53-2.563-3.597-.91-2.067-.91-4.444 0-2.563.91-4.713.93-2.17 2.563-3.72 1.633-1.572 3.865-2.44 2.253-.889 4.9-.889 2.645 0 4.898.868 2.274.848 3.907 2.357 1.654 1.509 2.584 3.535.93 2.025.93 4.361 0 2.46-.93 4.63t-2.584 3.804q-1.633 1.612-3.886 2.563-2.253.93-4.899.93zm.785-2.708q.93 0 1.695-.6.786-.599 1.344-1.612.558-1.012.868-2.335.33-1.323.33-2.77 0-2.13-.31-4.01-.31-1.881-1.033-3.287-.702-1.406-1.86-2.232-1.137-.827-2.79-.827-.786 0-1.53.6-.724.578-1.282 1.57-.558.992-.91 2.295-.33 1.302-.33 2.728 0 2.15.393 4.052.393 1.901 1.137 3.328.764 1.426 1.84 2.273 1.074.827 2.438.827zM144.73 26.848q0-.848-.186-1.51-.186-.66-.496-1.095-.31-.455-.724-.682-.393-.227-.827-.227-.434 0-1.013.186-.558.165-1.178.496-.62.31-1.26.765-.641.454-1.24 1.013V42.04h-6.76V19.86h6.76v1.736q1.55-1.136 3.327-1.653 1.778-.538 3.555-.538 1.365 0 2.584.538 1.24.517 2.15 1.447.93.91 1.468 2.15.558 1.219.558 2.625V42.04h-6.718z"/></g></svg>