<svg xmlns="http://www.w3.org/2000/svg" width="182" height="36" viewBox="0 0 182 36">
  <path fill="#2E294E" d="M54.4318178,7.90909958 L54.4318178,5.36364746 L64.5454445,5.36364746 L64.5454445,7.90909958 L61.0454478,7.90909958 L61.0454478,17 L57.9318144,17 L57.9318144,7.90909958 L54.4318178,7.90909958 Z M68.9090872,12.0909138 L68.9090872,17 L65.7727265,17 L65.7727265,5.36364746 L68.7954509,5.36364746 L68.7954509,9.93182492 L68.8863599,9.93182492 C69.278405,8.81818962 70.2329495,8.15909934 71.522721,8.15909934 C73.3693102,8.15909934 74.5738545,9.5227344 74.5681727,11.4318235 L74.5681927,17 L71.431812,17 L71.431812,12.0909138 C71.4374938,11.2272782 70.9829488,10.7045515 70.1818132,10.7045515 C69.4147685,10.7045515 68.914769,11.2272782 68.9090872,12.0909138 Z M80.2954498,17.1590908 C77.4999979,17.1590908 75.7954541,15.482956 75.7954541,12.659095 C75.7954541,9.95455217 77.5227252,8.15909934 80.227268,8.15909934 C82.8636292,8.15909934 84.568173,9.85796136 84.568173,12.6363678 L84.568173,13.3636398 L78.8863602,13.3636398 L78.8863602,13.5000033 C78.8863602,14.3409116 79.4318143,14.9545474 80.3636316,14.9545474 C81.0056764,14.9545474 81.5227214,14.6761386 81.7045394,14.1818209 L84.568173,14.1818209 C84.2727187,16.000001 82.715902,17.1590908 80.2954498,17.1590908 Z M78.8863602,11.6363688 L81.6818121,11.6363688 C81.6647667,10.8863695 81.0738581,10.3636427 80.2954498,10.3636427 C79.5284051,10.3636427 78.9034057,10.8806877 78.8863602,11.6363688 Z M93.772722,5.36364746 L96.8863554,5.36364746 L96.8863554,13.3409126 C96.8749918,15.6136377 95.0568117,17.1590908 92.4772687,17.1590908 C90.2386344,17.1590908 88.3977271,16.0454555 88.4090907,13.3636398 L91.5681786,13.3636398 C91.6022695,14.2443208 91.9886328,14.7045476 92.6818139,14.7045476 C93.3863587,14.7045476 93.7613584,14.238639 93.772722,13.3409126 L93.772722,5.36364746 Z M102.636359,17.1590908 C99.7954525,17.1590908 98.1136359,15.3409107 98.1136359,12.659095 C98.1136359,9.97727942 99.7954525,8.15909934 102.636359,8.15909934 C105.477265,8.15909934 107.159082,9.97727942 107.159082,12.659095 C107.159082,15.3409107 105.477265,17.1590908 102.636359,17.1590908 Z M102.659086,14.8409111 C103.45454,14.8409111 103.954539,14.0056847 103.954539,12.6363678 C103.954539,11.2670509 103.45454,10.4318244 102.659086,10.4318244 C101.818178,10.4318244 101.318178,11.2670509 101.318178,12.6363678 C101.318178,14.0056847 101.818178,14.8409111 102.659086,14.8409111 Z M114.090903,13.1818218 L114.090903,8.2727356 L117.227264,8.2727356 L117.227264,17 L114.249994,17 L114.249994,15.3409107 L114.159085,15.3409107 C113.778403,16.454546 112.778404,17.1136363 111.477269,17.1136363 C109.642044,17.1136363 108.437499,15.7500012 108.431817,13.8409121 L108.431817,8.2727356 L111.568178,8.2727356 L111.568178,13.1818218 C111.57386,14.0454574 112.028405,14.5681841 112.818177,14.5681841 C113.596585,14.5681841 114.096585,14.0454574 114.090903,13.1818218 Z M118.818181,17 L118.818181,8.2727356 L121.863633,8.2727356 L121.863633,9.93182492 L121.954542,9.93182492 C122.272723,8.70455337 122.999995,8.15909934 123.931813,8.15909934 C124.20454,8.15909934 124.477267,8.20455384 124.727266,8.27841741 L124.727266,10.9545512 C124.414767,10.8465968 123.89204,10.7954605 123.568177,10.7954605 C122.642041,10.7954605 121.954542,11.4545507 121.954542,12.4545498 L121.954542,17 L118.818181,17 Z M128.88636,12.0909138 L128.88636,17 L125.749999,17 L125.749999,8.2727356 L128.727269,8.2727356 L128.727269,9.93182492 L128.818178,9.93182492 C129.19886,8.82955325 130.215904,8.15909934 131.499994,8.15909934 C133.352265,8.15909934 134.551127,9.53409803 134.545445,11.4318235 L134.545466,17 L131.409085,17 L131.409085,12.0909138 C131.414767,11.2272782 130.948858,10.7045515 130.159086,10.7045515 C129.380678,10.7045515 128.892042,11.2272782 128.88636,12.0909138 Z M138.522724,17.1363635 C136.852271,17.1363635 135.681818,16.3295461 135.681818,14.5909114 C135.681818,12.6761405 137.085226,11.9488685 138.88636,11.8181868 C140.352268,11.7102323 140.909086,11.5511416 140.909086,11.0454602 L140.909086,11.022733 C140.909086,10.568188 140.522722,10.3181882 139.977268,10.3181882 C139.380678,10.3181882 138.982951,10.5738698 138.909087,11.113642 L136.022727,11.113642 C136.130681,9.5227344 137.414771,8.15909934 140.022723,8.15909934 C142.517039,8.15909934 144.045446,9.40909815 144.045446,11.022733 L144.045446,17 L141.113631,17 L141.113631,15.7727284 L141.045449,15.7727284 C140.51704,16.7500002 139.659087,17.1363635 138.522724,17.1363635 Z M139.54545,15.1590927 C140.255677,15.1590927 140.931813,14.7045476 140.931813,13.9090939 L140.931813,13.1818218 C140.602268,13.3181853 140.181814,13.420458 139.681814,13.5000033 C138.954542,13.6136396 138.63636,13.9602302 138.63636,14.4090934 C138.63636,14.8977293 139.01136,15.1590927 139.54545,15.1590927 Z M148.681814,5.36364746 L148.681814,17 L145.545454,17 L145.545454,5.36364746 L148.681814,5.36364746 Z M157.659086,17.1590908 C154.81818,17.1590908 153.136363,15.3409107 153.136363,12.659095 C153.136363,9.97727942 154.81818,8.15909934 157.659086,8.15909934 C160.499993,8.15909934 162.181809,9.97727942 162.181809,12.659095 C162.181809,15.3409107 160.499993,17.1590908 157.659086,17.1590908 Z M157.681813,14.8409111 C158.477267,14.8409111 158.977267,14.0056847 158.977267,12.6363678 C158.977267,11.2670509 158.477267,10.4318244 157.681813,10.4318244 C156.840905,10.4318244 156.340906,11.2670509 156.340906,12.6363678 C156.340906,14.0056847 156.840905,14.8409111 157.681813,14.8409111 Z M168.818176,8.2727356 L168.818176,10.5454607 L167.227268,10.5454607 L167.227268,17 L164.090908,17 L164.090908,10.5454607 L162.977272,10.5454607 L162.977272,8.2727356 L164.090908,8.2727356 L164.090908,8.02273583 C164.090908,5.86364698 165.318179,4.81819344 167.227268,4.81819344 C168.022722,4.81819344 168.86363,4.97728419 169.227266,5.0681932 L168.772721,7.31819105 C168.545449,7.2500093 168.20454,7.2045548 167.977268,7.2045548 C167.386359,7.2045548 167.227268,7.47728181 167.227268,7.88637233 L167.227268,8.2727356 L168.818176,8.2727356 Z M66.0227158,30.1818237 C66.0227158,34.0681837 63.5227182,36.1590908 60.3636303,36.1590908 C57.1818151,36.1590908 54.7045448,34.0454564 54.7045448,30.1818237 C54.7045448,26.2954638 57.1818151,24.2045567 60.3636303,24.2045567 C63.5227182,24.2045567 66.0227158,26.2954638 66.0227158,30.1818237 Z M62.7727189,30.1818237 C62.7727189,28.0909166 61.9318106,26.9545541 60.3636303,26.9545541 C58.79545,26.9545541 57.9545417,28.0909166 57.9545417,30.1818237 C57.9545417,32.2727308 58.79545,33.4090934 60.3636303,33.4090934 C61.9318106,33.4090934 62.7727189,32.2727308 62.7727189,30.1818237 Z M67.5227265,39.2727242 L67.5227265,27.2727356 L70.6363599,27.2727356 L70.6363599,28.7954614 L70.7045417,28.7954614 C71.0454504,27.9090986 71.8636315,27.1590993 73.1590848,27.1590993 C74.8863559,27.1590993 76.5681724,28.4772799 76.5681724,31.6363678 C76.5681724,34.6590922 74.9999921,36.1136363 73.1363575,36.1136363 C71.909086,36.1136363 71.0681777,35.454546 70.7045417,34.5681832 L70.6590872,34.5681832 L70.6590872,39.2727242 L67.5227265,39.2727242 Z M70.5909054,31.6363678 C70.5909054,32.9090939 71.1136322,33.7045476 71.9772677,33.7045476 C72.8409033,33.7045476 73.3409028,32.9318211 73.3409028,31.6363678 C73.3409028,30.3409145 72.8409033,29.568188 71.9772677,29.568188 C71.1136322,29.568188 70.5909054,30.3409145 70.5909054,31.6363678 Z M82.0681771,36.1590908 C79.2727252,36.1590908 77.5681814,34.482956 77.5681814,31.659095 C77.5681814,28.9545522 79.2954524,27.1590993 81.9999953,27.1590993 C84.6363564,27.1590993 86.3409003,28.8579614 86.3409003,31.6363678 L86.3409003,32.3636398 L80.6590875,32.3636398 L80.6590875,32.5000033 C80.6590875,33.3409116 81.2045415,33.9545474 82.1363588,33.9545474 C82.7784037,33.9545474 83.2954486,33.6761386 83.4772666,33.1818209 L86.3409003,33.1818209 C86.045446,35.000001 84.4886293,36.1590908 82.0681771,36.1590908 Z M80.6590875,30.6363688 L83.4545394,30.6363688 C83.4374939,29.8863695 82.8465854,29.3636427 82.0681771,29.3636427 C81.3011323,29.3636427 80.6761329,29.8806877 80.6590875,30.6363688 Z M90.7499963,31.0909138 L90.7499963,36 L87.6136356,36 L87.6136356,27.2727356 L90.5909055,27.2727356 L90.5909055,28.9318249 L90.6818145,28.9318249 C91.062496,27.8295532 92.0795404,27.1590993 93.3636301,27.1590993 C95.2159011,27.1590993 96.4147636,28.534098 96.4090818,30.4318235 L96.4091019,36 L93.2727211,36 L93.2727211,31.0909138 C93.2784029,30.2272782 92.8124943,29.7045515 92.0227223,29.7045515 C91.244314,29.7045515 90.7556781,30.2272782 90.7499963,31.0909138 Z M107.36363,28.0000076 C107.30113,27.2443265 106.818176,26.7954633 105.795449,26.7954633 C104.818178,26.7954633 104.392042,27.170463 104.38636,27.6818261 C104.357951,28.2386438 104.852268,28.5625071 105.95454,28.7954614 L106.909085,29.0000067 C109.477264,29.5511425 110.534081,30.7954595 110.545445,32.5681851 C110.534081,34.8636374 108.767037,36.1363635 105.818177,36.1363635 C102.784089,36.1363635 100.806818,34.8295466 100.795454,31.9090948 L103.795451,31.9090948 C103.846588,32.9772756 104.562496,33.5454569 105.772722,33.5454569 C106.784085,33.5454569 107.306812,33.1420482 107.318175,32.5681851 C107.306812,32.0397765 106.86363,31.7159132 105.568177,31.4318225 L104.409087,31.1818228 C102.346589,30.7386414 101.085227,29.7272787 101.090908,27.9090986 C101.073863,25.6931916 103.028407,24.2045567 105.795449,24.2045567 C108.613628,24.2045567 110.37499,25.7159189 110.386354,28.0000076 L107.36363,28.0000076 Z M115.999995,36.1590908 C113.159089,36.1590908 111.477272,34.3409107 111.477272,31.659095 C111.477272,28.9772794 113.159089,27.1590993 115.999995,27.1590993 C118.840902,27.1590993 120.522718,28.9772794 120.522718,31.659095 C120.522718,34.3409107 118.840902,36.1590908 115.999995,36.1590908 Z M116.022722,33.8409111 C116.818176,33.8409111 117.318176,33.0056847 117.318176,31.6363678 C117.318176,30.2670509 116.818176,29.4318244 116.022722,29.4318244 C115.181814,29.4318244 114.681815,30.2670509 114.681815,31.6363678 C114.681815,33.0056847 115.181814,33.8409111 116.022722,33.8409111 Z M127.454539,32.1818218 L127.454539,27.2727356 L130.5909,27.2727356 L130.5909,36 L127.61363,36 L127.61363,34.3409107 L127.522721,34.3409107 C127.14204,35.454546 126.142041,36.1136363 124.840905,36.1136363 C123.00568,36.1136363 121.801136,34.7500012 121.795454,32.8409121 L121.795454,27.2727356 L124.931814,27.2727356 L124.931814,32.1818218 C124.937496,33.0454574 125.392041,33.5681841 126.181813,33.5681841 C126.960222,33.5681841 127.460221,33.0454574 127.454539,32.1818218 Z M132.181817,36 L132.181817,27.2727356 L135.227269,27.2727356 L135.227269,28.9318249 L135.318178,28.9318249 C135.642041,27.7045534 136.363632,27.1590993 137.295449,27.1590993 C137.749994,27.1590993 138.193175,27.2840992 138.545448,27.4772809 L137.636358,30.0454602 C137.374994,29.9261422 137.102267,29.8181877 136.772722,29.8181877 C135.994314,29.8181877 135.32386,30.4602326 135.318178,31.4545498 L135.318178,36 L132.181817,36 Z M143.727268,36.1590908 C140.886362,36.1590908 139.204545,34.3409107 139.204545,31.659095 C139.204545,28.9772794 140.886362,27.1590993 143.727268,27.1590993 C146.295447,27.1590993 147.914764,28.6363707 147.931809,30.9090958 L145.022721,30.9090958 C144.937494,29.9943239 144.465904,29.5000062 143.772722,29.5000062 C142.94886,29.5000062 142.409087,30.204551 142.409087,31.6363678 C142.409087,33.0681846 142.94886,33.7727294 143.772722,33.7727294 C144.460222,33.7727294 144.95454,33.2784117 145.022721,32.3636398 L147.931809,32.3636398 C147.897719,34.6761376 146.312493,36.1590908 143.727268,36.1590908 Z M153.409086,36.1590908 C150.613634,36.1590908 148.90909,34.482956 148.90909,31.659095 C148.90909,28.9545522 150.636362,27.1590993 153.340904,27.1590993 C155.977266,27.1590993 157.681809,28.8579614 157.681809,31.6363678 L157.681809,32.3636398 L151.999997,32.3636398 L151.999997,32.5000033 C151.999997,33.3409116 152.545451,33.9545474 153.477268,33.9545474 C154.119313,33.9545474 154.636358,33.6761386 154.818176,33.1818209 L157.681809,33.1818209 C157.386355,35.000001 155.829538,36.1590908 153.409086,36.1590908 Z M151.999997,30.6363688 L154.795448,30.6363688 C154.778403,29.8863695 154.187495,29.3636427 153.409086,29.3636427 C152.642041,29.3636427 152.017042,29.8806877 151.999997,30.6363688 Z M168.36363,28.0000076 C168.30113,27.2443265 167.818176,26.7954633 166.795449,26.7954633 C165.818178,26.7954633 165.392042,27.170463 165.38636,27.6818261 C165.357951,28.2386438 165.852268,28.5625071 166.95454,28.7954614 L167.909085,29.0000067 C170.477264,29.5511425 171.534081,30.7954595 171.545445,32.5681851 C171.534081,34.8636374 169.767037,36.1363635 166.818177,36.1363635 C163.784089,36.1363635 161.806818,34.8295466 161.795454,31.9090948 L164.795451,31.9090948 C164.846588,32.9772756 165.562496,33.5454569 166.772722,33.5454569 C167.784085,33.5454569 168.306812,33.1420482 168.318175,32.5681851 C168.306812,32.0397765 167.86363,31.7159132 166.568177,31.4318225 L165.409087,31.1818228 C163.346589,30.7386414 162.085227,29.7272787 162.090908,27.9090986 C162.073863,25.6931916 164.028407,24.2045567 166.795449,24.2045567 C169.613628,24.2045567 171.37499,25.7159189 171.386354,28.0000076 L168.36363,28.0000076 Z M176.999995,36.1590908 C174.159089,36.1590908 172.477272,34.3409107 172.477272,31.659095 C172.477272,28.9772794 174.159089,27.1590993 176.999995,27.1590993 C179.840902,27.1590993 181.522718,28.9772794 181.522718,31.659095 C181.522718,34.3409107 179.840902,36.1590908 176.999995,36.1590908 Z M177.022722,33.8409111 C177.818176,33.8409111 178.318176,33.0056847 178.318176,31.6363678 C178.318176,30.2670509 177.818176,29.4318244 177.022722,29.4318244 C176.181814,29.4318244 175.681815,30.2670509 175.681815,31.6363678 C175.681815,33.0056847 176.181814,33.8409111 177.022722,33.8409111 Z M188.159085,27.2727356 L188.159085,29.5454607 L186.568177,29.5454607 L186.568177,36 L183.431817,36 L183.431817,29.5454607 L182.318182,29.5454607 L182.318182,27.2727356 L183.431817,27.2727356 L183.431817,27.0227358 C183.431817,24.863647 184.659088,23.8181934 186.568177,23.8181934 C187.363631,23.8181934 188.20454,23.9772842 188.568176,24.0681932 L188.113631,26.3181911 C187.886358,26.2500093 187.545449,26.2045548 187.318177,26.2045548 C186.727268,26.2045548 186.568177,26.4772818 186.568177,26.8863723 L186.568177,27.2727356 L188.159085,27.2727356 Z M194.568176,27.2727356 L194.568176,29.5454607 L193.068178,29.5454607 L193.068178,33.1931845 C193.068178,33.5568205 193.249996,33.7386385 193.659086,33.7386385 C193.846586,33.7386385 194.153404,33.6761386 194.272722,33.6477295 L194.727267,35.8522729 C194.443176,35.9375001 193.914768,36.0852272 193.204541,36.1249999 C191.03977,36.2443179 189.90909,35.3181825 189.931817,33.4886388 L189.931817,29.5454607 L188.818182,29.5454607 L188.818182,27.2727356 L189.931817,27.2727356 L189.931817,25.1818285 L193.068178,25.1818285 L193.068178,27.2727356 L194.568176,27.2727356 Z M197.386361,36 L195.204545,27.2727356 L198.340906,27.2727356 L199.340905,32.5909123 L199.409087,32.5909123 L200.522722,27.2727356 L203.568174,27.2727356 L204.727263,32.5454578 L204.795445,32.5454578 L205.74999,27.2727356 L208.88635,27.2727356 L206.704534,36 L203.318174,36 L202.090902,31.3181863 L201.999993,31.3181863 L200.772722,36 L197.386361,36 Z M212.272724,36.1363635 C210.602271,36.1363635 209.431818,35.3295461 209.431818,33.5909114 C209.431818,31.6761405 210.835226,30.9488685 212.63636,30.8181868 C214.102268,30.7102323 214.659086,30.5511416 214.659086,30.0454602 L214.659086,30.022733 C214.659086,29.568188 214.272722,29.3181882 213.727268,29.3181882 C213.130678,29.3181882 212.732951,29.5738698 212.659087,30.113642 L209.772727,30.113642 C209.880681,28.5227344 211.164771,27.1590993 213.772723,27.1590993 C216.267039,27.1590993 217.795446,28.4090981 217.795446,30.022733 L217.795446,36 L214.863631,36 L214.863631,34.7727284 L214.795449,34.7727284 C214.26704,35.7500002 213.409087,36.1363635 212.272724,36.1363635 Z M213.29545,34.1590927 C214.005677,34.1590927 214.681813,33.7045476 214.681813,32.9090939 L214.681813,32.1818218 C214.352268,32.3181853 213.931814,32.420458 213.431814,32.5000033 C212.704542,32.6136396 212.38636,32.9602302 212.38636,33.4090934 C212.38636,33.8977293 212.76136,34.1590927 213.29545,34.1590927 Z M219.295454,36 L219.295454,27.2727356 L222.340905,27.2727356 L222.340905,28.9318249 L222.431814,28.9318249 C222.755678,27.7045534 223.477268,27.1590993 224.409085,27.1590993 C224.86363,27.1590993 225.306812,27.2840992 225.659084,27.4772809 L224.749994,30.0454602 C224.488631,29.9261422 224.215904,29.8181877 223.886358,29.8181877 C223.10795,29.8181877 222.437496,30.4602326 222.431814,31.4545498 L222.431814,36 L219.295454,36 Z M230.818177,36.1590908 C228.022725,36.1590908 226.318181,34.482956 226.318181,31.659095 C226.318181,28.9545522 228.045452,27.1590993 230.749995,27.1590993 C233.386356,27.1590993 235.0909,28.8579614 235.0909,31.6363678 L235.0909,32.3636398 L229.409088,32.3636398 L229.409088,32.5000033 C229.409088,33.3409116 229.954542,33.9545474 230.886359,33.9545474 C231.528404,33.9545474 232.045449,33.6761386 232.227267,33.1818209 L235.0909,33.1818209 C234.795446,35.000001 233.238629,36.1590908 230.818177,36.1590908 Z M229.409088,30.6363688 L232.204539,30.6363688 C232.187494,29.8863695 231.596585,29.3636427 230.818177,29.3636427 C230.051132,29.3636427 229.426133,29.8806877 229.409088,30.6363688 Z" transform="translate(-54 -4)"/>
</svg>
