<svg xmlns="http://www.w3.org/2000/svg" xmlns:xlink="http://www.w3.org/1999/xlink" width="16" height="16" viewBox="0 0 16 16">
  <defs>
    <path id="rss-sm-a" d="M2.85714154,35.9999708 C2.22697787,35.9999708 1.71428329,36.5126654 1.71428329,37.142829 C1.71428329,37.7729872 2.22697787,38.2856873 2.85714154,38.2856873 C3.48729975,38.2856873 3.99999979,37.7729872 3.99999979,37.142829 C3.99999979,36.5126654 3.48729975,35.9999708 2.85714154,35.9999708 Z M2.85713881,34.2856875 C4.43508719,34.2856875 5.71427762,35.5648779 5.71427762,37.1428263 C5.71427762,38.7207747 4.43508719,39.9999651 2.85713881,39.9999651 C1.27919043,39.9999651 1.99840144e-13,38.7207747 1.99840144e-13,37.1428263 C1.99840144e-13,35.5648779 1.27919043,34.2856875 2.85713881,34.2856875 Z M15.9998378,39.5576527 C16.0063599,39.7996306 15.8132798,39.9999302 15.5711275,39.9999302 L14.7132534,39.9999302 C14.4817736,39.9999302 14.2915883,39.8160926 14.2849965,39.5847174 C14.0693509,32.0269016 7.98575878,25.9306491 0.415212861,25.7149337 C0.18383763,25.7083768 1.99840144e-13,25.5181567 1.99840144e-13,25.2866768 L1.99840144e-13,24.4288027 C1.99840144e-13,24.1867202 0.200334538,23.9936053 0.442347309,24.0001622 C8.9263964,24.2304213 15.7695089,31.0635938 15.9998378,39.5576527 Z M11.1341569,39.555874 C11.1436784,39.7984448 10.9484011,40 10.7056559,40 L9.84767718,40 C9.61797606,40 9.42963927,39.8188479 9.41980391,39.5893909 C9.21099421,34.7055739 5.29515852,30.7890058 0.410609073,30.5801961 C0.181152087,30.5703607 1.99840144e-13,30.3820239 1.99840144e-13,30.1523228 L1.99840144e-13,29.2943441 C1.99840144e-13,29.0515641 0.201520362,28.8562867 0.444091168,28.8658082 C6.24877045,29.0927889 10.9071762,33.7503227 11.1341569,39.555874 Z"/>
  </defs>
  <g fill="none" opacity=".56" transform="translate(0 -24)">
    <use fill="#FFF" xlink:href="#rss-sm-a"/>
    <use fill="#2E294E" xlink:href="#rss-sm-a"/>
  </g>
</svg>
