<svg xmlns="http://www.w3.org/2000/svg" xmlns:xlink="http://www.w3.org/1999/xlink" width="16" height="17" viewBox="0 0 16 17">
  <defs>
    <path id="rss-sm-a" d="M1002.85714,603.500033 C1002.22698,603.500033 1001.71428,604.012728 1001.71428,604.642892 C1001.71428,605.27305 1002.22698,605.785744 1002.85714,605.78575 C1003.4873,605.785744 1003.99999,605.27305 1004,604.642892 C1003.99999,604.012728 1003.4873,603.500033 1002.85714,603.500033 Z M1002.85714,601.78575 C1004.43509,601.78575 1005.71428,603.06494 1005.71428,604.642889 C1005.71428,606.220837 1004.43509,607.500028 1002.85714,607.500028 C1001.27919,607.500028 1000,606.220837 1000,604.642889 C1000,603.06494 1001.27919,601.78575 1002.85714,601.78575 Z M1015.99984,607.057715 C1016.00636,607.299693 1015.81328,607.500028 1015.57113,607.499993 L1014.71325,607.499993 C1014.48177,607.499993 1014.29159,607.316155 1014.285,607.08478 C1014.06935,599.526964 1007.98576,593.430712 1000.41521,593.214996 C1000.18384,593.208439 1000,593.018219 1000,592.786739 L1000,591.928865 C1000,591.686783 1000.20033,591.493668 1000.44235,591.500225 C1008.9264,591.730484 1015.76951,598.563656 1015.99984,607.057715 Z M1011.13416,607.055936 C1011.14368,607.298507 1010.9484,607.500028 1010.70566,607.500063 L1009.84768,607.500063 C1009.61798,607.500063 1009.42964,607.31891 1009.4198,607.089453 C1009.21099,602.205636 1005.29516,598.289068 1000.41061,598.080259 C1000.18115,598.070423 1000,597.882086 1000,597.652385 L1000,596.794407 C1000,596.551627 1000.20152,596.356349 1000.44409,596.365871 C1006.24877,596.592851 1010.90718,601.250385 1011.13416,607.055936 Z"/>
  </defs>
  <g fill="none" transform="translate(-1000 -591)">
    <use fill="#FFF" xlink:href="#rss-sm-a"/>
    <use fill="#ABA9B8" xlink:href="#rss-sm-a"/>
  </g>
</svg>
