<svg xmlns="http://www.w3.org/2000/svg" xmlns:xlink="http://www.w3.org/1999/xlink" width="32" height="32" viewBox="0 0 32 32">
  <defs>
    <path id="rss-a" d="M10.8571415,19.9999708 C10.2269779,19.9999708 9.71428329,20.5126654 9.71428329,21.142829 C9.71428329,21.7729872 10.2269779,22.2856873 10.8571415,22.2856873 C11.4872997,22.2856873 11.9999998,21.7729872 11.9999998,21.142829 C11.9999998,20.5126654 11.4872997,19.9999708 10.8571415,19.9999708 Z M10.8571388,18.2856875 C12.4350872,18.2856875 13.7142776,19.5648779 13.7142776,21.1428263 C13.7142776,22.7207747 12.4350872,23.9999651 10.8571388,23.9999651 C9.27919043,23.9999651 8,22.7207747 8,21.1428263 C8,19.5648779 9.27919043,18.2856875 10.8571388,18.2856875 Z M23.9998378,23.5576527 C24.0063599,23.7996306 23.8132798,23.9999302 23.5711275,23.9999302 L22.7132534,23.9999302 C22.4817736,23.9999302 22.2915883,23.8160926 22.2849965,23.5847174 C22.0693509,16.0269016 15.9857588,9.93064911 8.41521286,9.71493373 C8.18383763,9.70837682 8,9.51815666 8,9.2866768 L8,8.42880274 C8,8.18672021 8.20033454,7.99360525 8.44234731,8.00016216 C16.9263964,8.23042132 23.7695089,15.0635938 23.9998378,23.5576527 Z M19.1341569,23.555874 C19.1436784,23.7984448 18.9484011,24 18.7056559,24 L17.8476772,24 C17.6179761,24 17.4296393,23.8188479 17.4198039,23.5893909 C17.2109942,18.7055739 13.2951585,14.7890058 8.41060907,14.5801961 C8.18115209,14.5703607 8,14.3820239 8,14.1523228 L8,13.2943441 C8,13.0515641 8.20152036,12.8562867 8.44409117,12.8658082 C14.2487704,13.0927889 18.9071762,17.7503227 19.1341569,23.555874 Z"/>
  </defs>
  <g fill="none" fill-rule="evenodd">
    <circle cx="16" cy="16" r="16" fill="#FFB500"/>
    <g fill="#FFF" fill-rule="nonzero">
      <use xlink:href="#rss-a"/>
      <use xlink:href="#rss-a"/>
    </g>
  </g>
</svg>
